PathFileType	4	(X/Y/Z)	c:\Git\powerlifing_model_clean\simulations\HC835B\Session1\HC835B_STD_0001\marker_experimental.trc
DataRate	CameraRate	NumFrames	NumMarkers	Units	OrigDataRate	OrigDataStartFrame	OrigNumFrames
240.000000	240.000000	4	48	mm	240.000000	42	337
Frame#	Time	RPSI			LPSI			RASI			LASI			RGT			RTH1			RTH2			RTH3			RTH4			RLK			RMK			RSK1			RSK2			RSK3			RSK4			RLA			RMA			RCAL1			RCAL2			RCAL3			RST			RPT			RTN			RFMB			RSMB			RVMB			RFMH			RSMH			RVMH			RPM			LGT			LTH1			LTH2			LTH3			LTH4			LLK			LMK			LSK1			LSK2			LSK3			LSK4			LLA			LMA			LCAL1			LCAL2			LCAL3			LFMH			LVMH			
		X1	Y1	Z1	X2	Y2	Z2	X3	Y3	Z3	X4	Y4	Z4	X5	Y5	Z5	X6	Y6	Z6	X7	Y7	Z7	X8	Y8	Z8	X9	Y9	Z9	X10	Y10	Z10	X11	Y11	Z11	X12	Y12	Z12	X13	Y13	Z13	X14	Y14	Z14	X15	Y15	Z15	X16	Y16	Z16	X17	Y17	Z17	X18	Y18	Z18	X19	Y19	Z19	X20	Y20	Z20	X21	Y21	Z21	X22	Y22	Z22	X23	Y23	Z23	X24	Y24	Z24	X25	Y25	Z25	X26	Y26	Z26	X27	Y27	Z27	X28	Y28	Z28	X29	Y29	Z29	X30	Y30	Z30	X31	Y31	Z31	X32	Y32	Z32	X33	Y33	Z33	X34	Y34	Z34	X35	Y35	Z35	X36	Y36	Z36	X37	Y37	Z37	X38	Y38	Z38	X39	Y39	Z39	X40	Y40	Z40	X41	Y41	Z41	X42	Y42	Z42	X43	Y43	Z43	X44	Y44	Z44	X45	Y45	Z45	X46	Y46	Z46	X47	Y47	Z47	X48	Y48	Z48	

43	0.175	495.8799743652345	1162.096435546875	-352.5627136230469	387.4715270996095	1159.505004882813	-348.7615051269532	555.1859130859376	1105.688110351563	-556.8876342773439	316.1174316406251	1101.3662109375	-554.1234741210939	637.7440185546876	1023.961364746094	-448.6754455566407	639.9651489257814	836.4490966796877	-460.1026916503907	627.7861938476564	819.6710205078127	-517.2993774414064	630.1571044921876	753.7329101562501	-475.2529296875001	606.7236938476564	737.7846069335939	-526.5308837890626	609.4147338867189	552.7966308593751	-457.2624511718751	483.7673645019532	538.7475585937501	-446.7375488281251	613.1923828125001	307.2036132812501	-360.6461181640626	615.1229248046876	287.9210510253907	-419.0591125488282	611.5382690429689	249.4673919677735	-371.9220275878907	600.4638671875001	231.8099060058594	-427.9465637207032	605.4246215820314	114.6073074340821	-359.3294372558594	522.1219482421876	124.3216857910157	-404.1929016113282	560.3918457031251	95.5192337036133	-304.7515563964844	528.7834472656251	58.16283035278322	-314.3706359863282	592.8394165039064	58.75578689575197	-308.7670288085938	517.4223022460939	76.21872711181642	-380.6058959960938	618.4277954101564	72.24207305908205	-367.0180053710938	530.4710083007814	94.49758911132814	-438.2652587890626	537.0308837890626	78.12715911865236	-469.3800048828126	586.2966918945314	101.840576171875	-477.4414672851564	632.2797851562501	47.64494323730469	-410.2113342285157	537.2423095703126	50.77669143676759	-527.2832641601564	592.0076293945314	65.84575653076173	-537.5158081054689	648.2289428710939	42.28065490722657	-490.5836181640626	582.5786132812501	53.3361282348633	-596.8306274414064	245.2195434570313	1013.214416503906	-442.5933837890626	239.3882141113282	830.9146118164065	-442.8132934570314	242.5490264892579	813.8674926757815	-501.1455383300782	243.5784454345704	746.3357543945314	-456.4503173828126	263.5447082519532	731.3414306640626	-512.2774047851564	266.0408935546876	564.2124633789064	-441.6954956054689	397.0080566406251	553.6216430664064	-442.7347717285157	257.4778442382813	300.2712402343751	-354.0344543457032	251.4672393798829	279.2023010253907	-403.0200805664064	257.3130187988282	244.9017486572266	-367.7885131835938	267.6462707519532	225.7003173828126	-419.910125732422	259.3744506835938	115.4178314208985	-363.1810913085938	349.4448242187501	123.7084045410157	-400.6608276367189	306.6336059570313	94.79916381835939	-303.2253112792969	275.8173828125001	58.18349456787111	-303.4852905273438	334.1313476562501	56.40516662597658	-307.9229125976563	344.7013854980469	55.29715728759767	-530.6837768554689	229.7461700439454	41.53872299194337	-492.9832763671876	
44	0.1791666666666667	495.8839721679689	1162.083618164063	-352.5937500000001	387.4641113281251	1159.509521484375	-348.7569885253907	555.1768188476564	1105.68408203125	-556.9073486328126	316.0972290039063	1101.372314453125	-554.1453857421876	637.7410278320314	1023.970886230469	-448.6940307617189	639.9750366210939	836.4598388671877	-460.1336975097657	627.7656250000001	819.651062011719	-517.3017578125001	630.1447753906251	753.7047119140626	-475.2604370117189	606.7189941406251	737.7698364257814	-526.5507812500001	609.4243164062501	552.8124389648439	-457.2869262695314	483.7439880371095	538.7476806640626	-446.7363281250001	613.1834716796876	307.2169189453126	-360.6439208984376	615.1206665039064	287.9388427734376	-419.064178466797	611.5213012695314	249.4741973876954	-371.9314270019532	600.4594726562501	231.8078155517579	-427.974578857422	605.4652099609376	114.6520462036133	-359.2821655273438	522.1029052734376	124.2861328125	-404.2054443359376	560.3889160156251	95.5006790161133	-304.7436523437501	528.7676391601564	58.14390563964845	-314.3726501464844	592.8462524414064	58.76305770874025	-308.7825927734376	517.3927001953126	76.22521209716798	-380.6091613769532	618.4767456054689	72.27790832519533	-367.0115661621094	530.4980468750001	94.5004119873047	-438.2442932128907	537.0391235351564	78.11680603027345	-469.3838500976564	586.3096313476564	101.8151168823242	-477.4286193847657	632.3016967773439	47.6870346069336	-410.1970825195314	537.3591918945314	50.71062469482423	-527.3159790039064	591.9872436523439	65.81827545166017	-537.4825439453126	648.2409057617189	42.29013061523438	-490.5683593750001	582.5878295898439	53.32597732543947	-596.8242187500001	245.2225036621094	1013.208862304688	-442.6257629394532	239.4112091064454	830.9224853515627	-442.8270874023439	242.570785522461	813.8483886718752	-501.169891357422	243.5779266357422	746.3591308593751	-456.4777221679689	263.5733947753907	731.3430175781251	-512.2936401367189	266.0278015136719	564.2162475585939	-441.6920471191407	396.9828491210939	553.6276245117189	-442.7505798339845	257.4812927246094	300.2861938476563	-354.0206909179688	251.4520416259766	279.2250366210938	-403.0057983398439	257.2998352050782	244.9009094238282	-367.7814941406251	267.6672668457032	225.7292175292969	-419.9031066894532	259.3873291015626	115.4267044067383	-363.1726074218751	349.4507446289063	123.7221374511719	-400.6685791015626	306.6289672851563	94.79784393310548	-303.2225341796876	275.7980957031251	58.1986656188965	-303.4711608886719	334.1433105468751	56.40245437622072	-307.9510498046876	344.7015075683594	55.27270126342775	-530.6802978515626	229.7380371093751	41.5211524963379	-492.9780883789064	
45	0.1833333333333333	495.8846130371095	1162.113525390625	-352.6315612792969	387.478729248047	1159.503540039063	-348.7935485839844	555.1441650390626	1105.670043945313	-556.9524536132814	316.0875854492188	1101.375	-554.1791992187501	637.7391967773439	1023.979187011719	-448.7263488769532	639.9240722656251	836.4338378906252	-460.1311645507814	627.7664794921876	819.662536621094	-517.3342895507814	630.1940917968751	753.7260742187501	-475.2672424316407	606.7266845703126	737.7847900390626	-526.5476074218751	609.4384155273439	552.8168945312501	-457.289764404297	483.7589416503907	538.7412109375001	-446.736053466797	613.1982421875001	307.2234802246094	-360.6577148437501	615.1304931640626	287.9285888671876	-419.062957763672	611.5159912109376	249.4778442382813	-371.9252319335938	600.4532470703126	231.7858886718751	-427.9514770507814	605.4318237304689	114.6629714965821	-359.2811889648438	522.1052856445314	124.3268051147461	-404.2066345214845	560.3842773437501	95.5032424926758	-304.7420349121094	528.7730102539064	58.17191696166994	-314.3590393066407	592.8491821289064	58.79586029052736	-308.7817687988282	517.4154663085939	76.23390197753908	-380.6453552246094	618.3990478515626	72.2487258911133	-367.0300903320313	530.5017089843751	94.50027465820314	-438.2579956054689	537.0553588867189	78.12316131591798	-469.3976135253907	586.3117675781251	101.8257522583008	-477.400848388672	632.2466430664064	47.68101882934571	-410.1963500976564	537.3524169921876	50.70029067993165	-527.2972412109376	591.9923706054689	65.85161590576173	-537.4783935546876	648.2319335937501	42.26589584350587	-490.589324951172	582.5613403320314	53.36589431762697	-596.8359375000001	245.2284088134766	1013.204406738281	-442.6356506347657	239.431869506836	830.933288574219	-442.850067138672	242.5585479736329	813.8566894531252	-501.1563415527345	243.5642242431641	746.3329467773439	-456.4648437500001	263.5557250976563	731.3397216796876	-512.2693481445314	266.0370178222657	564.2204589843751	-441.6722412109376	396.9758300781251	553.6093750000001	-442.739715576172	257.4632263183594	300.2743225097657	-354.0335083007813	251.4596405029297	279.1953125000001	-403.0353088378907	257.3056640625001	244.894515991211	-367.7835083007813	267.6160888671876	225.7134857177735	-419.9016418457032	259.4074707031251	115.3705825805664	-363.1818237304688	349.4558715820313	123.7053909301758	-400.6505737304689	306.6139526367188	94.80775451660158	-303.2077636718751	275.8148803710938	58.21799087524415	-303.4807434082032	334.1268920898438	56.41861724853517	-307.9491271972657	344.7084960937501	55.26466751098634	-530.6323852539064	229.7486114501954	41.51644897460938	-492.9958801269532	
46	0.1875	495.8968200683595	1162.097045898438	-352.6481933593751	387.478485107422	1159.535278320313	-348.8140258789063	555.1567993164064	1105.670288085938	-556.9698486328126	316.1034851074219	1101.36669921875	-554.2011718750001	637.7460327148439	1023.974426269531	-448.7584533691407	639.9375610351564	836.4602050781252	-460.1561584472657	627.7537231445314	819.6460571289065	-517.3376464843751	630.1769409179689	753.7180786132814	-475.2890625000001	606.7283325195314	737.7781372070314	-526.5610351562501	609.4121093750001	552.7877197265626	-457.3322143554689	483.741180419922	538.7160034179689	-446.7933349609376	613.2077026367189	307.2209472656251	-360.6628112792969	615.1066284179689	287.9237976074219	-419.0764465332032	611.5132446289064	249.4595489501954	-371.9604187011719	600.4757080078126	231.8041992187501	-427.9654846191407	605.4227294921876	114.6272811889649	-359.3263549804688	522.1116943359376	124.2995681762696	-404.210174560547	560.3942260742189	95.47733306884767	-304.7579040527344	528.7885131835939	58.20001602172853	-314.3521118164063	592.9461059570314	58.7759475708008	-308.7422180175782	517.3976440429689	76.23825836181642	-380.5929260253907	618.3118896484376	72.13967895507814	-367.1258544921876	530.4678955078126	94.47241210937501	-438.2428283691407	537.0161743164064	78.13218688964845	-469.3861083984376	586.2938842773439	101.8424224853516	-477.4271545410157	632.2977905273439	47.68378829956055	-410.1994018554689	537.3225097656251	50.73645782470705	-527.3042602539064	592.0056152343751	65.82698059082033	-537.4948120117189	648.2157592773439	42.27899932861329	-490.5845336914064	582.5592651367189	53.34604644775392	-596.8286132812501	245.2043914794922	1013.189392089844	-442.6305236816407	239.4431152343751	830.9238281250002	-442.847137451172	242.5854187011719	813.8552246093752	-501.1658325195314	243.5806884765626	746.3316040039064	-456.4385375976564	263.5837402343751	731.3244628906251	-512.2760009765626	266.0185852050782	564.2163085937501	-441.6581115722657	397.0162353515626	553.6425781250001	-442.7168273925782	257.4225463867188	300.2912902832032	-353.9906005859376	251.4527893066407	279.2255859375001	-403.040985107422	257.2692565917969	244.8950500488282	-367.7425231933594	267.6381835937501	225.7120208740235	-419.8824157714845	259.3914794921876	115.3816833496094	-363.1736450195313	349.4404907226563	123.7155151367188	-400.6697082519532	306.6165161132813	94.83181762695314	-303.2413635253907	275.8260498046876	58.17164993286134	-303.4897766113282	334.1310729980469	56.41900634765626	-307.9301757812501	344.6960144042969	55.25554275512697	-530.6468505859376	229.7647399902344	41.53987884521485	-493.0021057128907	
